<svg xmlns="http://www.w3.org/2000/svg" width="96.005" height="126.4" viewBox="0 0 96.005 126.4"><g transform="translate(-10.995 -0.6)"><path d="M72.3,85.7a2.822,2.822,0,0,0,1.5-.4l17.3-10a3,3,0,1,0-3-5.2l-17.3,10a3.062,3.062,0,0,0-1.1,4.1A2.984,2.984,0,0,0,72.3,85.7Z" fill="#fff"/><path d="M97,121H14.2a3.16,3.16,0,0,0-3.2,2.8,3.055,3.055,0,0,0,3,3.2H97a9.392,9.392,0,0,0,4.7-1.2A10.4,10.4,0,0,0,107,117a10.247,10.247,0,0,0-10.4-10H49A30.465,30.465,0,0,1,29.5,53.1a2.924,2.924,0,0,0,.8-3.2v-.1a2.959,2.959,0,0,0-4.7-1.3A36.549,36.549,0,0,0,49,113H97a4.012,4.012,0,0,1,4,4,4.1,4.1,0,0,1-4,4Z" fill="#fff"/><path d="M35,40A10.029,10.029,0,0,0,45,50a10.9,10.9,0,0,0,4.4-1l7.3,12.7,6,10.4a3.013,3.013,0,0,0,2.6,1.5,2.822,2.822,0,0,0,1.5-.4l17.3-10a3.062,3.062,0,0,0,1.1-4.1l-30-52A13.02,13.02,0,0,0,43.9.6a13.411,13.411,0,0,0-6.5,1.7,12.8,12.8,0,0,0-6.1,7.9,13.129,13.129,0,0,0,1.3,9.9l4,7,2.7,4.7A9.817,9.817,0,0,0,35,40Z" fill="#fff"/></g></svg>