<svg xmlns="http://www.w3.org/2000/svg" width="126" height="124.6" viewBox="0 0 126 124.6"><g transform="translate(-1 -1)"><path d="M14,97H35.2a3,3,0,0,0,0-6H14a6.957,6.957,0,0,1-7-7V14a6.957,6.957,0,0,1,7-7H114a6.957,6.957,0,0,1,7,7V84a6.957,6.957,0,0,1-7,7H96a3,3,0,0,0,0,6h18a12.974,12.974,0,0,0,13-13V14A12.974,12.974,0,0,0,114,1H14A12.974,12.974,0,0,0,1,14V84A12.974,12.974,0,0,0,14,97Z" fill="#fff"/><path d="M102,24a2.946,2.946,0,0,0-3-3H29a3,3,0,0,0,0,6H99A2.946,2.946,0,0,0,102,24Z" fill="#fff"/><path d="M44,42H84a3,3,0,0,0,0-6H44a3,3,0,0,0,0,6Z" fill="#fff"/><path d="M64,55.1a18.053,18.053,0,0,0-18,18,110.4,110.4,0,0,0,11.4,48.5l1.1,2.3a3.011,3.011,0,0,0,2.7,1.7h0a3.129,3.129,0,0,0,2.7-1.7l8-16.2,15.2,4.4a3.054,3.054,0,0,0,3.5-4.3l-1.1-2.3a72.251,72.251,0,0,1-7.6-30.9c0-.5.1-1,.1-1.5A18.053,18.053,0,0,0,64,55.1Zm0,30a12,12,0,1,1,12-12A12.035,12.035,0,0,1,64,85.1Z" fill="#fff"/></g></svg>