<svg xmlns="http://www.w3.org/2000/svg" width="118" height="126" viewBox="0 0 118 126"><g transform="translate(-5 -1)"><path d="M8,127H98a12.974,12.974,0,0,0,13-13V26A12.974,12.974,0,0,0,98,13H62a3,3,0,0,0,0,6H98a6.957,6.957,0,0,1,7,7v88a6.957,6.957,0,0,1-7,7H11V13a5.6,5.6,0,0,1,1.8-4.2A6.174,6.174,0,0,1,17,7h83a16.986,16.986,0,0,1,17,17v90a3,3,0,0,0,6,0V24A23,23,0,0,0,100,1H17A11.95,11.95,0,0,0,5,13V124A2.946,2.946,0,0,0,8,127Z" fill="#fff"/><path d="M28,96a3,3,0,0,0,0,6H63a3,3,0,0,0,0-6Z" fill="#fff"/><path d="M86,79a2.946,2.946,0,0,0-3-3H28a3,3,0,0,0,0,6H83A2.946,2.946,0,0,0,86,79Z" fill="#fff"/><path d="M56.7,40.9c-3.9-7.7-5.5-16.3-5.7-25h0A2.9,2.9,0,0,0,48.1,13H23a3.009,3.009,0,0,0-3,3,93.016,93.016,0,0,0,9.8,41.4l1,1.9A3.011,3.011,0,0,0,33.5,61h0a3.129,3.129,0,0,0,2.7-1.7l6.6-13.4,12.6,3.6A2.89,2.89,0,0,0,59,47.6a3.135,3.135,0,0,0-.2-2.5Z" fill="#fff"/></g></svg>