<svg xmlns="http://www.w3.org/2000/svg" width="122" height="85.025" viewBox="0 0 122 85.025"><g transform="translate(-3.1 -26.975)"><path d="M120.4,47.5,70.1,28.1a17.1,17.1,0,0,0-12.2,0L7.6,47.5a6.944,6.944,0,0,0,0,13L21,65.7V89c0,20.4,23,23,43,23s43-2.6,43-23V69.5a7.023,7.023,0,0,0-3-5.8,7.138,7.138,0,0,0-6.5-.8L67.9,74.3a10.777,10.777,0,0,1-7.9,0L9.8,54.9a.975.975,0,0,1,0-1.8L60.1,33.8a10.777,10.777,0,0,1,7.9,0l50.3,19.3a1.1,1.1,0,0,1,.8,1V69a3,3,0,0,0,6,0V54.3A7.221,7.221,0,0,0,120.4,47.5Z" fill="#fff"/><path d="M125,89V84a3,3,0,0,0-6,0v5a3,3,0,0,0,6,0Z" fill="#fff"/></g></svg>