<svg xmlns="http://www.w3.org/2000/svg" width="126" height="110.27" viewBox="0 0 126 110.27"><g transform="translate(-1 -16.73)"><path d="M80.4,19.7C71,23.9,64.1,32.3,61.1,43.2a2.2,2.2,0,0,0-.1.8v80a3.019,3.019,0,0,0,2.6,3H64a3.092,3.092,0,0,0,2.9-2.2c2.5-9.2,8.2-16.2,16-19.7s16.8-3.2,25.4,1a2.772,2.772,0,0,0,2.9-.2,2.851,2.851,0,0,0,1.4-2.5v-80a3.129,3.129,0,0,0-1.7-2.7C100.7,15.8,89.9,15.4,80.4,19.7Z" fill="#fff"/><path d="M124,41a2.946,2.946,0,0,0-3,3v77H79a3,3,0,0,0,0,6h45a2.946,2.946,0,0,0,3-3V44A2.946,2.946,0,0,0,124,41Z" fill="#fff"/><path d="M53.6,39.8a3,3,0,0,0,3-5.2A45.574,45.574,0,0,0,1.8,41.9,3.037,3.037,0,0,0,1,44v80a2.946,2.946,0,0,0,3,3H49a3,3,0,0,0,0-6H7V45.3A39.277,39.277,0,0,1,53.6,39.8Z" fill="#fff"/></g></svg>