<svg xmlns="http://www.w3.org/2000/svg" width="290.962" height="332.908" viewBox="0 0 290.962 332.908">
  <g id="mail" transform="translate(-15.884)">
    <path id="Path_10" data-name="Path 10" d="M295.459,302.282H27.261A11.361,11.361,0,0,1,15.9,290.919V95.587H306.823V290.919A11.361,11.361,0,0,1,295.459,302.282Z" transform="translate(0.004 30.626)" fill="#e74b22"/>
    <path id="Path_11" data-name="Path 11" d="M161.365,0,15.884,126.209h0L161.365,252.418,306.846,126.209Z" transform="translate(0)" fill="#83253d"/>
    <path id="Path_12" data-name="Path 12" d="M160.49,156.539,18.615,279.638a11.286,11.286,0,0,0,7.775,3.115h268.2a11.293,11.293,0,0,0,7.775-3.115C295.536,273.716,160.49,156.539,160.49,156.539Z" transform="translate(0.875 50.156)" fill="#d1411b"/>
    <path id="Path_13" data-name="Path 13" d="M45.307,21.9V138.1l80.275,69.655,26.355-22.867,26.355,22.867L258.568,138.1V21.9Z" transform="translate(9.427 7.015)" fill="#efeff0"/>
    <rect id="Rectangle_14" data-name="Rectangle 14" width="158.094" height="11.097" transform="translate(82.318 61.625)" fill="#0c0c0c"/>
    <rect id="Rectangle_15" data-name="Rectangle 15" width="158.094" height="11.097" transform="translate(82.318 98.615)" fill="#0c0c0c"/>
    <rect id="Rectangle_16" data-name="Rectangle 16" width="71.649" height="11.097" transform="translate(82.318 135.605)" fill="#0c0c0c"/>
  </g>
</svg>
