<svg xmlns="http://www.w3.org/2000/svg" width="662.608" height="497.312" viewBox="0 0 662.608 497.312">
  <g id="noun_envelope_181304" transform="translate(1190.882 105.032)">
    <path id="Path_15" data-name="Path 15" d="M79.269,21H12.246A7.267,7.267,0,0,0,5,28.246v38.04a7.267,7.267,0,0,0,7.246,7.246H79.269a7.267,7.267,0,0,0,7.246-7.246V28.246A7.267,7.267,0,0,0,79.269,21ZM12.427,24.623H79.45c.272,0,.543-.091.815-.091L54.815,49.44a12.685,12.685,0,0,1-17.752,0L11.612,24.623A2.462,2.462,0,0,1,12.427,24.623Zm-3.8,41.391V27.974a4.777,4.777,0,0,1,.272-1.087L29.273,46.813,8.8,66.829A2.645,2.645,0,0,1,8.623,66.014ZM79.45,69.909H12.427a3.21,3.21,0,0,1-1-.272l20.56-20.2,2.627,2.536a16.407,16.407,0,0,0,22.824,0l2.808-2.9L80.9,69.456A3.88,3.88,0,0,1,79.45,69.909ZM62.785,46.541,82.8,26.887a4.41,4.41,0,0,1,.091,1.087v38.04c0,.091.091.181.091.362Z" transform="matrix(0.921, -0.391, 0.391, 0.921, -1203.69, -90.559)" fill="#efeff0"/>
    <path id="Path_16" data-name="Path 16" d="M117.39,21H15.965A11,11,0,0,0,5,31.965V89.53A11,11,0,0,0,15.965,100.5H117.39A11,11,0,0,0,128.355,89.53V31.965A11,11,0,0,0,117.39,21ZM16.239,26.482H117.664c.411,0,.822-.137,1.234-.137L80.383,64.037a19.2,19.2,0,0,1-26.864,0L15.005,26.482A3.726,3.726,0,0,1,16.239,26.482ZM10.482,89.119V31.554a7.229,7.229,0,0,1,.411-1.645L41.732,60.062,10.757,90.353A4,4,0,0,1,10.482,89.119Zm107.181,5.894H16.239a4.859,4.859,0,0,1-1.508-.411L45.844,64.037l3.975,3.838a24.828,24.828,0,0,0,34.539,0l4.249-4.386,31.25,30.839A5.872,5.872,0,0,1,117.664,95.013ZM92.445,59.651l30.29-29.742a6.673,6.673,0,0,1,.137,1.645V89.119c0,.137.137.274.137.548Z" transform="translate(-1150.143 126.079) rotate(-51)" fill="#efeff0"/>
    <path id="Path_17" data-name="Path 17" d="M122.786,21H16.491A11.525,11.525,0,0,0,5,32.491v60.33a11.525,11.525,0,0,0,11.491,11.491h106.3a11.525,11.525,0,0,0,11.491-11.491V32.491A11.525,11.525,0,0,0,122.786,21ZM16.779,26.746h106.3c.431,0,.862-.144,1.293-.144L84,66.1a20.117,20.117,0,0,1-28.154,0L15.486,26.746A3.905,3.905,0,0,1,16.779,26.746ZM10.746,92.39V32.06a7.576,7.576,0,0,1,.431-1.724L43.5,61.938,11.033,93.683A4.194,4.194,0,0,1,10.746,92.39Zm112.328,6.177H16.779a5.091,5.091,0,0,1-1.58-.431L47.805,66.1l4.166,4.022a26.02,26.02,0,0,0,36.2,0l4.453-4.6,32.75,32.319A6.154,6.154,0,0,1,123.074,98.567Zm-26.43-37.06,31.745-31.17a6.994,6.994,0,0,1,.144,1.724V92.39c0,.144.144.287.144.575Z" transform="translate(-941.388 -125.994) rotate(19)" fill="#efeff0"/>
    <path id="Path_18" data-name="Path 18" d="M85.053,21H12.81A7.833,7.833,0,0,0,5,28.81v41a7.833,7.833,0,0,0,7.81,7.81H85.053a7.833,7.833,0,0,0,7.81-7.81v-41A7.833,7.833,0,0,0,85.053,21ZM13.005,24.905H85.248c.293,0,.586-.1.879-.1L58.694,51.654a13.672,13.672,0,0,1-19.135,0L12.127,24.905A2.654,2.654,0,0,1,13.005,24.905ZM8.905,69.52v-41A5.149,5.149,0,0,1,9.2,27.346L31.164,48.823,9.1,70.4A2.851,2.851,0,0,1,8.905,69.52Zm76.343,4.2H13.005a3.46,3.46,0,0,1-1.074-.293l22.161-21.77,2.831,2.734a17.685,17.685,0,0,0,24.6,0l3.026-3.124L86.81,73.23A4.182,4.182,0,0,1,85.248,73.718ZM67.285,48.53,88.86,27.346a4.753,4.753,0,0,1,.1,1.172v41c0,.1.1.2.1.391Z" transform="translate(-598.678 129.99) rotate(49)" fill="#efeff0"/>
    <path id="Path_19" data-name="Path 19" d="M109.509,21H15.2A10.226,10.226,0,0,0,5,31.2V84.725a10.226,10.226,0,0,0,10.2,10.2h94.313a10.226,10.226,0,0,0,10.2-10.2V31.2A10.226,10.226,0,0,0,109.509,21ZM15.451,26.1h94.313c.382,0,.765-.127,1.147-.127L75.1,61.019a17.849,17.849,0,0,1-24.98,0L14.3,26.1A3.465,3.465,0,0,1,15.451,26.1ZM10.1,84.343V30.814a6.722,6.722,0,0,1,.382-1.529L39.157,57.323,10.353,85.49A3.721,3.721,0,0,1,10.1,84.343Zm99.666,5.48H15.451a4.518,4.518,0,0,1-1.4-.382L42.98,61.019l3.7,3.569a23.087,23.087,0,0,0,32.117,0l3.951-4.078L111.8,89.186A5.46,5.46,0,0,1,109.764,89.823ZM86.313,56.941,114.48,29.284a6.205,6.205,0,0,1,.127,1.529V84.343c0,.127.127.255.127.51Z" transform="matrix(0.985, -0.174, 0.174, 0.985, -1144.794, 299.668)" fill="#efeff0"/>
    <path id="Path_20" data-name="Path 20" d="M65.062,21H10.86A5.877,5.877,0,0,0,5,26.86V57.623a5.877,5.877,0,0,0,5.86,5.86h54.2a5.877,5.877,0,0,0,5.86-5.86V26.86A5.877,5.877,0,0,0,65.062,21ZM11.006,23.93h54.2c.22,0,.439-.073.659-.073L45.286,44a10.258,10.258,0,0,1-14.356,0L10.347,23.93A1.991,1.991,0,0,1,11.006,23.93ZM7.93,57.4V26.64a3.863,3.863,0,0,1,.22-.879L24.63,41.875,8.076,58.063A2.139,2.139,0,0,1,7.93,57.4Zm57.279,3.15h-54.2a2.6,2.6,0,0,1-.806-.22L26.828,44l2.124,2.051a13.268,13.268,0,0,0,18.458,0l2.271-2.344,16.7,16.481A3.138,3.138,0,0,1,65.209,60.553Zm-13.477-18.9L67.919,25.761a3.566,3.566,0,0,1,.073.879V57.4c0,.073.073.146.073.293Z" transform="translate(-919.894 117.825) rotate(17)" fill="#efeff0"/>
    <path id="Path_21" data-name="Path 21" d="M93.573,21H13.641A8.667,8.667,0,0,0,5,29.641V75.008a8.667,8.667,0,0,0,8.641,8.641H93.573a8.667,8.667,0,0,0,8.641-8.641V29.641A8.667,8.667,0,0,0,93.573,21ZM13.857,25.321H93.789c.324,0,.648-.108.972-.108l-30.352,29.7a15.128,15.128,0,0,1-21.171,0l-30.352-29.6A2.937,2.937,0,0,1,13.857,25.321ZM9.321,74.684V29.317a5.7,5.7,0,0,1,.324-1.3l24.3,23.763L9.537,75.656A3.154,3.154,0,0,1,9.321,74.684Zm84.468,4.645H13.857A3.829,3.829,0,0,1,12.669,79l24.52-24.088,3.132,3.024a19.567,19.567,0,0,0,27.22,0l3.348-3.457,24.628,24.3A4.627,4.627,0,0,1,93.789,79.328ZM73.914,51.46,97.785,28.021a5.259,5.259,0,0,1,.108,1.3V74.684c0,.108.108.216.108.432Z" transform="translate(-797.086 56.57) rotate(-21)" fill="#efeff0"/>
    <path id="Path_28" data-name="Path 28" d="M109.509,21H15.2A10.226,10.226,0,0,0,5,31.2V84.725a10.226,10.226,0,0,0,10.2,10.2h94.313a10.226,10.226,0,0,0,10.2-10.2V31.2A10.226,10.226,0,0,0,109.509,21ZM15.451,26.1h94.313c.382,0,.765-.127,1.147-.127L75.1,61.019a17.849,17.849,0,0,1-24.98,0L14.3,26.1A3.465,3.465,0,0,1,15.451,26.1ZM10.1,84.343V30.814a6.722,6.722,0,0,1,.382-1.529L39.157,57.323,10.353,85.49A3.721,3.721,0,0,1,10.1,84.343Zm99.666,5.48H15.451a4.518,4.518,0,0,1-1.4-.382L42.98,61.019l3.7,3.569a23.087,23.087,0,0,0,32.117,0l3.951-4.078L111.8,89.186A5.46,5.46,0,0,1,109.764,89.823ZM86.313,56.941,114.48,29.284a6.205,6.205,0,0,1,.127,1.529V84.343c0,.127.127.255.127.51Z" transform="matrix(0.985, -0.174, 0.174, 0.985, -856.363, 288.066)" fill="#efeff0"/>
    <path id="Path_29" data-name="Path 29" d="M49.524,21H9.344A4.357,4.357,0,0,0,5,25.344v22.8a4.357,4.357,0,0,0,4.344,4.344h40.18a4.357,4.357,0,0,0,4.344-4.344v-22.8A4.357,4.357,0,0,0,49.524,21ZM9.452,23.172h40.18c.163,0,.326-.054.489-.054L34.863,38.049a7.6,7.6,0,0,1-10.642,0L8.964,23.172A1.476,1.476,0,0,1,9.452,23.172ZM7.172,47.986v-22.8a2.864,2.864,0,0,1,.163-.652L19.552,36.475l-12.271,12A1.585,1.585,0,0,1,7.172,47.986Zm42.46,2.335H9.452a1.925,1.925,0,0,1-.6-.163L21.181,38.049l1.575,1.52a9.836,9.836,0,0,0,13.683,0l1.683-1.738L50.5,50.049A2.326,2.326,0,0,1,49.632,50.32ZM39.642,36.312l12-11.782a2.643,2.643,0,0,1,.054.652v22.8c0,.054.054.109.054.217Z" transform="matrix(0.985, -0.174, 0.174, 0.985, -590.439, 314.844)" fill="#efeff0"/>
    <path id="Path_30" data-name="Path 30" d="M66.5,21H11a6.018,6.018,0,0,0-6,6V58.5a6.018,6.018,0,0,0,6,6H66.5a6.018,6.018,0,0,0,6-6V27A6.018,6.018,0,0,0,66.5,21ZM11.15,24h55.5c.225,0,.45-.075.675-.075L46.252,44.551a10.5,10.5,0,0,1-14.7,0L10.475,24A2.039,2.039,0,0,1,11.15,24ZM8,58.277v-31.5a3.956,3.956,0,0,1,.225-.9L25.1,42.376,8.15,58.952A2.19,2.19,0,0,1,8,58.277ZM66.654,61.5H11.15a2.659,2.659,0,0,1-.825-.225L27.351,44.551l2.175,2.1a13.587,13.587,0,0,0,18.9,0l2.325-2.4,17.1,16.876A3.213,3.213,0,0,1,66.654,61.5Zm-13.8-19.351L69.429,25.875a3.652,3.652,0,0,1,.075.9v31.5c0,.075.075.15.075.3Z" transform="matrix(0.755, -0.656, 0.656, 0.755, -635.219, -50.92)" fill="#efeff0"/>
  </g>
</svg>
